<?xml version="1.0" encoding="UTF-8"?>
<svg width="64px" height="64px" viewBox="0 0 64 64" xmlns="http://www.w3.org/2000/svg">
  <g fill="none" fill-rule="evenodd">
    <path d="M32,58 C16.536,58 4,45.464 4,30 C4,14.536 16.536,2 32,2 C47.464,2 60,14.536 60,30 C60,45.464 47.464,58 32,58 Z" 
          fill="#5D4037" fill-rule="nonzero" opacity="0.2"/>
    <path d="M32,54 C18.745,54 8,43.255 8,30 C8,16.745 18.745,6 32,6 C45.255,6 56,16.745 56,30 C56,43.255 45.255,54 32,54 Z" 
          fill="#B87333" fill-rule="nonzero"/>
    <path d="M32,54 C18.745,54 8,43.255 8,30 C8,16.745 18.745,6 32,6 C45.255,6 56,16.745 56,30 C56,43.255 45.255,54 32,54 Z" 
          stroke="#3D1C02" stroke-width="2" stroke-linecap="round" stroke-linejoin="round"/>
    <path d="M20,22 L28,30 M36,18 L30,28 M42,32 L32,40 M24,42 L32,34" 
          stroke="#3D1C02" stroke-width="2" stroke-linecap="round" stroke-linejoin="round"/>
  </g>
</svg> 